<?xml version="1.0" standalone="no"?>
<!DOCTYPE svg PUBLIC "-//W3C//DTD SVG 20010904//EN"
 "http://www.w3.org/TR/2001/REC-SVG-20010904/DTD/svg10.dtd">
<svg version="1.0" xmlns="http://www.w3.org/2000/svg"
 width="512.000000pt" height="512.000000pt" viewBox="0 0 512.000000 512.000000"
 preserveAspectRatio="xMidYMid meet">
<metadata>
Created by potrace 1.14, written by Peter Selinger 2001-2017
</metadata>
<g transform="translate(0.000000,512.000000) scale(0.100000,-0.100000)"
fill="#000000" stroke="none">
<path d="M829 4542 c-15 -17 -321 -309 -388 -372 -19 -17 -105 -98 -190 -180
-86 -82 -178 -169 -205 -194 l-48 -46 375 -468 c728 -907 1290 -1607 1318
-1642 16 -19 160 -199 321 -400 161 -201 349 -436 418 -521 69 -86 130 -154
135 -152 6 3 71 82 146 176 112 141 971 1214 1071 1337 16 19 128 159 249 310
121 151 228 284 237 295 10 11 80 99 157 195 77 96 144 180 150 186 5 7 131
163 279 348 l269 337 -34 31 c-19 17 -72 67 -119 112 -96 92 -411 391 -474
450 -22 21 -82 79 -133 127 l-92 89 -1713 -1 c-1585 -1 -1714 -2 -1729 -17z"/>
</g>
</svg>
